# xmcd CD database file
#
# Track frame offsets:
#	150
#	24666
#	60380
#	83702
#	99812
#	121811
#	143319
#	164251
#	199173
#
# Disc length: 3133 seconds
#
# Revision: 1
# Processed by: cddbd v1.5.2PL0 Copyright (c) Steve Scherf et al.
# Submitted via: CDex 1.51
#
DISCID=620c3b09
DTITLE=Big Walter Horton Feat.Ronnie Earl and Sugar Ray - Live At The Knickerbocker
DYEAR=2014
DGENRE=Blues
TTITLE0=I Cry For You (Live)
TTITLE1=Lord Knows I Tried (Live)
TTITLE2=Country Girl (Live)
TTITLE3=Walter's Shuffle (Live)
TTITLE4=Little Boy Blue (Live)
TTITLE5=It's Not Easy (Live)
TTITLE6=Two Old Maids (Live)
TTITLE7=What's On Your Worried Mind (Live)
TTITLE8=Walter's Swing (Live)
EXTD=YEAR: 2014
EXTT0=
EXTT1=
EXTT2=
EXTT3=
EXTT4=
EXTT5=
EXTT6=
EXTT7=
EXTT8=
PLAYORDER=
